<svg width="30" height="30" viewBox="0 0 68 68" fill="none" xmlns="http://www.w3.org/2000/svg">
<path d="M34 0.101501C15.3082 0.101501 0.101501 15.3082 0.101501 34C0.101501 52.6918 15.3082 67.8985 34 67.8985C52.6918 67.8985 67.8985 52.6918 67.8985 34C67.8985 15.3082 52.6918 0.101501 34 0.101501ZM34 61.122C19.046 61.122 6.87797 48.955 6.87797 34C6.87797 19.045 19.0455 6.87797 34 6.87797C48.9545 6.87797 61.122 19.0455 61.122 34C61.122 48.9545 48.9545 61.122 34 61.122Z" fill="white"/>
<path d="M12.475 41.7291C12.0374 41.7291 11.6703 41.6303 11.3738 41.4326C11.0774 41.2209 10.8938 40.9385 10.8233 40.5856C10.7527 40.2185 10.8162 39.8091 11.0138 39.3573L16.2868 28.0067C16.5409 27.4562 16.8515 27.0538 17.2185 26.7997C17.5997 26.5456 18.0303 26.4185 18.5103 26.4185C18.9903 26.4185 19.4068 26.5456 19.7597 26.7997C20.1268 27.0538 20.4444 27.4562 20.7127 28.0067L25.9856 39.3573C26.2115 39.8091 26.2891 40.2185 26.2185 40.5856C26.1621 40.9526 25.9856 41.235 25.6891 41.4326C25.4068 41.6303 25.0538 41.7291 24.6303 41.7291C24.0656 41.7291 23.628 41.602 23.3174 41.3479C23.0209 41.0938 22.7527 40.6844 22.5127 40.1197L21.3691 37.4303L22.8515 38.5103H14.1268L15.6303 37.4303L14.4868 40.1197C14.2327 40.6844 13.9715 41.0938 13.7033 41.3479C13.435 41.602 13.0256 41.7291 12.475 41.7291ZM18.468 30.675L16.0115 36.5409L15.4185 35.5244H21.5809L20.988 36.5409L18.5103 30.675H18.468ZM30.5956 41.5385C29.9321 41.5385 29.4239 41.3691 29.0709 41.0303C28.7321 40.6773 28.5627 40.1762 28.5627 39.5267V28.6209C28.5627 27.9715 28.7321 27.4773 29.0709 27.1385C29.4239 26.7856 29.9321 26.6091 30.5956 26.6091H34.7462C37.3439 26.6091 39.3486 27.2585 40.7603 28.5573C42.1862 29.8562 42.8992 31.6915 42.8992 34.0632C42.8992 35.2491 42.7156 36.3079 42.3486 37.2397C41.9815 38.1573 41.4521 38.9409 40.7603 39.5903C40.0686 40.2256 39.2144 40.7126 38.198 41.0515C37.1956 41.3762 36.045 41.5385 34.7462 41.5385H30.5956ZM32.4592 38.3832H34.4921C35.2403 38.3832 35.8827 38.2915 36.4192 38.1079C36.9697 37.9244 37.4215 37.6562 37.7744 37.3032C38.1415 36.9503 38.4097 36.5056 38.5792 35.9691C38.7627 35.4326 38.8544 34.7973 38.8544 34.0632C38.8544 32.595 38.4944 31.515 37.7744 30.8232C37.0544 30.1173 35.9603 29.7644 34.4921 29.7644H32.4592V38.3832ZM51.3937 41.7715C50.829 41.7715 50.2361 41.7291 49.6149 41.6444C49.0079 41.5738 48.429 41.4609 47.8784 41.3056C47.3279 41.1503 46.8337 40.9667 46.3961 40.755C46.0149 40.5715 45.7467 40.3315 45.5914 40.035C45.4361 39.7244 45.3796 39.3997 45.422 39.0609C45.4643 38.722 45.5843 38.4256 45.782 38.1715C45.9796 37.9032 46.2408 37.7267 46.5655 37.642C46.8902 37.5432 47.2573 37.5856 47.6667 37.7691C48.2031 38.0232 48.8102 38.2209 49.4879 38.362C50.1655 38.5032 50.8008 38.5738 51.3937 38.5738C52.3255 38.5738 52.9749 38.4538 53.342 38.2138C53.7231 37.9597 53.9137 37.6491 53.9137 37.282C53.9137 36.9573 53.7796 36.6962 53.5114 36.4985C53.2573 36.3009 52.7984 36.1315 52.1349 35.9903L49.6573 35.4609C48.302 35.1785 47.2926 34.6844 46.629 33.9785C45.9655 33.2726 45.6337 32.362 45.6337 31.2467C45.6337 30.5126 45.782 29.8491 46.0784 29.2562C46.389 28.6491 46.8196 28.1338 47.3702 27.7103C47.9349 27.2867 48.5984 26.962 49.3608 26.7362C50.1373 26.4962 50.9984 26.3762 51.9443 26.3762C52.6784 26.3762 53.4196 26.4609 54.1679 26.6303C54.9302 26.7856 55.5867 27.0256 56.1373 27.3503C56.462 27.5197 56.6949 27.7526 56.8361 28.0491C56.9773 28.3456 57.0337 28.6562 57.0055 28.9809C56.9773 29.2915 56.8643 29.5667 56.6667 29.8067C56.4831 30.0467 56.229 30.2091 55.9043 30.2938C55.5937 30.3644 55.2196 30.3079 54.782 30.1244C54.3726 29.9409 53.9067 29.8067 53.3843 29.722C52.8761 29.6232 52.382 29.5738 51.902 29.5738C51.3796 29.5738 50.9349 29.6373 50.5679 29.7644C50.2008 29.8773 49.9184 30.0467 49.7208 30.2726C49.5373 30.4985 49.4455 30.7597 49.4455 31.0562C49.4455 31.3526 49.5655 31.6067 49.8055 31.8185C50.0596 32.0162 50.5184 32.1856 51.182 32.3267L53.6384 32.8562C55.0079 33.1526 56.0314 33.6397 56.709 34.3173C57.3867 34.995 57.7255 35.8773 57.7255 36.9644C57.7255 37.6985 57.5773 38.362 57.2808 38.955C56.9843 39.5479 56.5608 40.0562 56.0102 40.4797C55.4596 40.8891 54.7961 41.2067 54.0196 41.4326C53.2431 41.6585 52.3679 41.7715 51.3937 41.7715Z" fill="white"/>
<rect x="54.654" y="8.06787" width="4.70588" height="65.8824" rx="2.35294" transform="rotate(45 54.654 8.06787)" fill="white"/>
</svg>
