<svg width="28" height="28" viewBox="0 0 39 38" fill="none" xmlns="http://www.w3.org/2000/svg">
<rect x="0.5" width="38" height="38" rx="19" fill="#0096FF"/>
<path d="M25.4297 24.656V27.0935H13.875V25.0076L19.418 19.0193C19.9961 18.363 20.4531 17.7927 20.7891 17.3083C21.125 16.824 21.3633 16.3865 21.5039 15.9958C21.6523 15.5974 21.7266 15.2185 21.7266 14.8591C21.7266 14.3357 21.6328 13.8787 21.4453 13.488C21.2578 13.0896 20.9844 12.781 20.625 12.5623C20.2734 12.3435 19.8398 12.2341 19.3242 12.2341C18.7539 12.2341 18.2656 12.3669 17.8594 12.6326C17.4609 12.8904 17.1562 13.2498 16.9453 13.7107C16.7422 14.1716 16.6406 14.699 16.6406 15.2927H13.5352C13.5352 14.2849 13.7695 13.3669 14.2383 12.5388C14.707 11.7029 15.3789 11.0349 16.2539 10.5349C17.1289 10.0349 18.168 9.78491 19.3711 9.78491C20.543 9.78491 21.5352 9.98022 22.3477 10.3708C23.1602 10.7537 23.7773 11.3005 24.1992 12.0115C24.6211 12.7224 24.832 13.5701 24.832 14.5544C24.832 15.1013 24.7422 15.6404 24.5625 16.1716C24.3828 16.7029 24.1289 17.2302 23.8008 17.7537C23.4805 18.2693 23.0977 18.7927 22.6523 19.324C22.207 19.8552 21.7109 20.3982 21.1641 20.9529L17.8359 24.656H25.4297Z" fill="white"/>
</svg>
