<svg width="328px" height="76px" viewBox="0 0 501 76" fill="none" xmlns="http://www.w3.org/2000/svg">
<rect x="1" y="1" width="499" height="74" rx="7" fill="url(#paint0_linear_1_1017)" fill-opacity="0.2"/>
<path d="M32.5469 27.8125V29.5H26.8281V27.8125H32.5469ZM27.4766 18.125V29.5H25.3281V18.125H27.4766ZM36.0156 21.0469V29.5H33.9453V21.0469H36.0156ZM33.8047 18.8359C33.8047 18.5286 33.9089 18.2734 34.1172 18.0703C34.3307 17.8672 34.6172 17.7656 34.9766 17.7656C35.3359 17.7656 35.6198 17.8672 35.8281 18.0703C36.0417 18.2734 36.1484 18.5286 36.1484 18.8359C36.1484 19.138 36.0417 19.3906 35.8281 19.5938C35.6198 19.7969 35.3359 19.8984 34.9766 19.8984C34.6172 19.8984 34.3307 19.7969 34.1172 19.5938C33.9089 19.3906 33.8047 19.138 33.8047 18.8359ZM40.0391 22.7812V29.5H37.9766V21.0469H39.9219L40.0391 22.7812ZM39.7344 24.9688H39.1016C39.1016 24.3802 39.1719 23.8385 39.3125 23.3438C39.4583 22.849 39.6719 22.4193 39.9531 22.0547C40.2344 21.6849 40.5807 21.3984 40.9922 21.1953C41.4089 20.9922 41.8906 20.8906 42.4375 20.8906C42.8177 20.8906 43.1667 20.9479 43.4844 21.0625C43.8021 21.1719 44.0755 21.3464 44.3047 21.5859C44.5391 21.8203 44.7188 22.1276 44.8438 22.5078C44.9688 22.8828 45.0312 23.3333 45.0312 23.8594V29.5H42.9688V24.0703C42.9688 23.6745 42.9115 23.3646 42.7969 23.1406C42.6875 22.9167 42.5286 22.7604 42.3203 22.6719C42.112 22.5781 41.862 22.5312 41.5703 22.5312C41.2474 22.5312 40.9688 22.5964 40.7344 22.7266C40.5052 22.8516 40.3151 23.026 40.1641 23.25C40.0182 23.474 39.9089 23.7318 39.8359 24.0234C39.7682 24.3151 39.7344 24.6302 39.7344 24.9688ZM44.875 24.5859L44.0234 24.7422C44.0286 24.2109 44.1016 23.7135 44.2422 23.25C44.3828 22.7812 44.5885 22.3724 44.8594 22.0234C45.1354 21.6693 45.4766 21.3932 45.8828 21.1953C46.2943 20.9922 46.7682 20.8906 47.3047 20.8906C47.7214 20.8906 48.0964 20.9505 48.4297 21.0703C48.7682 21.1849 49.0573 21.3698 49.2969 21.625C49.5365 21.875 49.7188 22.2005 49.8438 22.6016C49.974 23.0026 50.0391 23.4922 50.0391 24.0703V29.5H47.9609V24.0625C47.9609 23.651 47.9036 23.3359 47.7891 23.1172C47.6797 22.8984 47.5208 22.7474 47.3125 22.6641C47.1042 22.5755 46.8594 22.5312 46.5781 22.5312C46.2917 22.5312 46.0417 22.5859 45.8281 22.6953C45.6198 22.7995 45.4427 22.9453 45.2969 23.1328C45.1562 23.3203 45.0495 23.5391 44.9766 23.7891C44.9089 24.0339 44.875 24.2995 44.875 24.5859ZM54.0781 21.0469V29.5H52.0078V21.0469H54.0781ZM51.8672 18.8359C51.8672 18.5286 51.9714 18.2734 52.1797 18.0703C52.3932 17.8672 52.6797 17.7656 53.0391 17.7656C53.3984 17.7656 53.6823 17.8672 53.8906 18.0703C54.1042 18.2734 54.2109 18.5286 54.2109 18.8359C54.2109 19.138 54.1042 19.3906 53.8906 19.5938C53.6823 19.7969 53.3984 19.8984 53.0391 19.8984C52.6797 19.8984 52.3932 19.7969 52.1797 19.5938C51.9714 19.3906 51.8672 19.138 51.8672 18.8359ZM60.0469 21.0469V22.5312H55.2031V21.0469H60.0469ZM56.5 18.9688H58.5703V27.0625C58.5703 27.3125 58.6042 27.5052 58.6719 27.6406C58.7396 27.776 58.8411 27.8672 58.9766 27.9141C59.112 27.9609 59.2734 27.9844 59.4609 27.9844C59.5964 27.9844 59.7214 27.9766 59.8359 27.9609C59.9505 27.9453 60.0469 27.9297 60.125 27.9141L60.1328 29.4609C59.9609 29.5182 59.7656 29.5651 59.5469 29.6016C59.3333 29.638 59.0911 29.6562 58.8203 29.6562C58.3568 29.6562 57.9505 29.5781 57.6016 29.4219C57.2526 29.2604 56.9818 29.0026 56.7891 28.6484C56.5964 28.2891 56.5 27.8151 56.5 27.2266V18.9688ZM65.2188 29.6562C64.5781 29.6562 64.0026 29.5521 63.4922 29.3438C62.9818 29.1354 62.5469 28.8464 62.1875 28.4766C61.8333 28.1016 61.5599 27.6667 61.3672 27.1719C61.1797 26.6719 61.0859 26.1354 61.0859 25.5625V25.25C61.0859 24.599 61.1797 24.0078 61.3672 23.4766C61.5547 22.9401 61.8203 22.4792 62.1641 22.0938C62.5078 21.7083 62.9193 21.4115 63.3984 21.2031C63.8776 20.9948 64.4062 20.8906 64.9844 20.8906C65.5833 20.8906 66.112 20.9922 66.5703 21.1953C67.0286 21.3932 67.4115 21.6745 67.7188 22.0391C68.026 22.4036 68.2578 22.8411 68.4141 23.3516C68.5703 23.8568 68.6484 24.4167 68.6484 25.0312V25.8984H62.0234V24.4766H66.6172V24.3203C66.6068 23.9922 66.5443 23.6927 66.4297 23.4219C66.3151 23.1458 66.138 22.9271 65.8984 22.7656C65.6589 22.599 65.349 22.5156 64.9688 22.5156C64.6615 22.5156 64.3932 22.5833 64.1641 22.7188C63.9401 22.849 63.7526 23.0365 63.6016 23.2812C63.4557 23.5208 63.3464 23.8073 63.2734 24.1406C63.2005 24.474 63.1641 24.8438 63.1641 25.25V25.5625C63.1641 25.9167 63.2109 26.2448 63.3047 26.5469C63.4036 26.849 63.5469 27.112 63.7344 27.3359C63.9271 27.5547 64.1562 27.7266 64.4219 27.8516C64.6927 27.9714 65 28.0312 65.3438 28.0312C65.776 28.0312 66.1667 27.9479 66.5156 27.7812C66.8698 27.6094 67.1771 27.3568 67.4375 27.0234L68.4766 28.1016C68.2995 28.362 68.0599 28.612 67.7578 28.8516C67.4609 29.0911 67.1016 29.2865 66.6797 29.4375C66.2578 29.5833 65.7708 29.6562 65.2188 29.6562ZM75.1016 27.7031V17.5H77.1797V29.5H75.3047L75.1016 27.7031ZM69.6719 25.375V25.2109C69.6719 24.5651 69.7448 23.9792 69.8906 23.4531C70.0417 22.9219 70.2604 22.4661 70.5469 22.0859C70.8333 21.7057 71.1797 21.4115 71.5859 21.2031C71.9974 20.9948 72.4635 20.8906 72.9844 20.8906C73.4896 20.8906 73.9297 20.9922 74.3047 21.1953C74.6849 21.3984 75.0078 21.6875 75.2734 22.0625C75.5443 22.4375 75.7604 22.8828 75.9219 23.3984C76.0833 23.9089 76.2005 24.4714 76.2734 25.0859V25.5312C76.2005 26.1302 76.0833 26.6797 75.9219 27.1797C75.7604 27.6797 75.5443 28.1172 75.2734 28.4922C75.0078 28.862 74.6849 29.1484 74.3047 29.3516C73.9245 29.5547 73.4792 29.6562 72.9688 29.6562C72.4531 29.6562 71.9896 29.5495 71.5781 29.3359C71.1719 29.1224 70.8255 28.8229 70.5391 28.4375C70.2578 28.0521 70.0417 27.599 69.8906 27.0781C69.7448 26.5573 69.6719 25.9896 69.6719 25.375ZM71.7422 25.2109V25.375C71.7422 25.7396 71.7734 26.0807 71.8359 26.3984C71.8984 26.7161 72 26.9974 72.1406 27.2422C72.2812 27.4818 72.4609 27.6693 72.6797 27.8047C72.9036 27.9401 73.1745 28.0078 73.4922 28.0078C73.8984 28.0078 74.2318 27.9193 74.4922 27.7422C74.7578 27.5599 74.9635 27.3125 75.1094 27C75.2552 26.6823 75.349 26.3255 75.3906 25.9297V24.7031C75.3698 24.3906 75.3151 24.1016 75.2266 23.8359C75.1432 23.5703 75.0234 23.3411 74.8672 23.1484C74.7161 22.9557 74.5286 22.8047 74.3047 22.6953C74.0807 22.5859 73.8151 22.5312 73.5078 22.5312C73.1901 22.5312 72.9193 22.6016 72.6953 22.7422C72.4714 22.8776 72.2891 23.0677 72.1484 23.3125C72.0078 23.5573 71.9036 23.8411 71.8359 24.1641C71.7734 24.487 71.7422 24.8359 71.7422 25.2109ZM87.0312 21.0469V22.5312H82.1875V21.0469H87.0312ZM83.4844 18.9688H85.5547V27.0625C85.5547 27.3125 85.5885 27.5052 85.6562 27.6406C85.724 27.776 85.8255 27.8672 85.9609 27.9141C86.0964 27.9609 86.2578 27.9844 86.4453 27.9844C86.5807 27.9844 86.7057 27.9766 86.8203 27.9609C86.9349 27.9453 87.0312 27.9297 87.1094 27.9141L87.1172 29.4609C86.9453 29.5182 86.75 29.5651 86.5312 29.6016C86.3177 29.638 86.0755 29.6562 85.8047 29.6562C85.3411 29.6562 84.9349 29.5781 84.5859 29.4219C84.237 29.2604 83.9661 29.0026 83.7734 28.6484C83.5807 28.2891 83.4844 27.8151 83.4844 27.2266V18.9688ZM90.5938 21.0469V29.5H88.5234V21.0469H90.5938ZM88.3828 18.8359C88.3828 18.5286 88.487 18.2734 88.6953 18.0703C88.9089 17.8672 89.1953 17.7656 89.5547 17.7656C89.9141 17.7656 90.1979 17.8672 90.4062 18.0703C90.6198 18.2734 90.7266 18.5286 90.7266 18.8359C90.7266 19.138 90.6198 19.3906 90.4062 19.5938C90.1979 19.7969 89.9141 19.8984 89.5547 19.8984C89.1953 19.8984 88.9089 19.7969 88.6953 19.5938C88.487 19.3906 88.3828 19.138 88.3828 18.8359ZM94.6172 22.7812V29.5H92.5547V21.0469H94.5L94.6172 22.7812ZM94.3125 24.9688H93.6797C93.6797 24.3802 93.75 23.8385 93.8906 23.3438C94.0365 22.849 94.25 22.4193 94.5312 22.0547C94.8125 21.6849 95.1589 21.3984 95.5703 21.1953C95.987 20.9922 96.4688 20.8906 97.0156 20.8906C97.3958 20.8906 97.7448 20.9479 98.0625 21.0625C98.3802 21.1719 98.6536 21.3464 98.8828 21.5859C99.1172 21.8203 99.2969 22.1276 99.4219 22.5078C99.5469 22.8828 99.6094 23.3333 99.6094 23.8594V29.5H97.5469V24.0703C97.5469 23.6745 97.4896 23.3646 97.375 23.1406C97.2656 22.9167 97.1068 22.7604 96.8984 22.6719C96.6901 22.5781 96.4401 22.5312 96.1484 22.5312C95.8255 22.5312 95.5469 22.5964 95.3125 22.7266C95.0833 22.8516 94.8932 23.026 94.7422 23.25C94.5964 23.474 94.487 23.7318 94.4141 24.0234C94.3464 24.3151 94.3125 24.6302 94.3125 24.9688ZM99.4531 24.5859L98.6016 24.7422C98.6068 24.2109 98.6797 23.7135 98.8203 23.25C98.9609 22.7812 99.1667 22.3724 99.4375 22.0234C99.7135 21.6693 100.055 21.3932 100.461 21.1953C100.872 20.9922 101.346 20.8906 101.883 20.8906C102.299 20.8906 102.674 20.9505 103.008 21.0703C103.346 21.1849 103.635 21.3698 103.875 21.625C104.115 21.875 104.297 22.2005 104.422 22.6016C104.552 23.0026 104.617 23.4922 104.617 24.0703V29.5H102.539V24.0625C102.539 23.651 102.482 23.3359 102.367 23.1172C102.258 22.8984 102.099 22.7474 101.891 22.6641C101.682 22.5755 101.438 22.5312 101.156 22.5312C100.87 22.5312 100.62 22.5859 100.406 22.6953C100.198 22.7995 100.021 22.9453 99.875 23.1328C99.7344 23.3203 99.6276 23.5391 99.5547 23.7891C99.487 24.0339 99.4531 24.2995 99.4531 24.5859ZM110.266 29.6562C109.625 29.6562 109.049 29.5521 108.539 29.3438C108.029 29.1354 107.594 28.8464 107.234 28.4766C106.88 28.1016 106.607 27.6667 106.414 27.1719C106.227 26.6719 106.133 26.1354 106.133 25.5625V25.25C106.133 24.599 106.227 24.0078 106.414 23.4766C106.602 22.9401 106.867 22.4792 107.211 22.0938C107.555 21.7083 107.966 21.4115 108.445 21.2031C108.924 20.9948 109.453 20.8906 110.031 20.8906C110.63 20.8906 111.159 20.9922 111.617 21.1953C112.076 21.3932 112.458 21.6745 112.766 22.0391C113.073 22.4036 113.305 22.8411 113.461 23.3516C113.617 23.8568 113.695 24.4167 113.695 25.0312V25.8984H107.07V24.4766H111.664V24.3203C111.654 23.9922 111.591 23.6927 111.477 23.4219C111.362 23.1458 111.185 22.9271 110.945 22.7656C110.706 22.599 110.396 22.5156 110.016 22.5156C109.708 22.5156 109.44 22.5833 109.211 22.7188C108.987 22.849 108.799 23.0365 108.648 23.2812C108.503 23.5208 108.393 23.8073 108.32 24.1406C108.247 24.474 108.211 24.8438 108.211 25.25V25.5625C108.211 25.9167 108.258 26.2448 108.352 26.5469C108.451 26.849 108.594 27.112 108.781 27.3359C108.974 27.5547 109.203 27.7266 109.469 27.8516C109.74 27.9714 110.047 28.0312 110.391 28.0312C110.823 28.0312 111.214 27.9479 111.562 27.7812C111.917 27.6094 112.224 27.3568 112.484 27.0234L113.523 28.1016C113.346 28.362 113.107 28.612 112.805 28.8516C112.508 29.0911 112.148 29.2865 111.727 29.4375C111.305 29.5833 110.818 29.6562 110.266 29.6562ZM118.695 25.3594V25.1953C118.695 24.5755 118.784 24.0052 118.961 23.4844C119.138 22.9583 119.396 22.5026 119.734 22.1172C120.073 21.7318 120.487 21.4323 120.977 21.2188C121.466 21 122.023 20.8906 122.648 20.8906C123.284 20.8906 123.846 21 124.336 21.2188C124.831 21.4323 125.247 21.7318 125.586 22.1172C125.924 22.5026 126.182 22.9583 126.359 23.4844C126.536 24.0052 126.625 24.5755 126.625 25.1953V25.3594C126.625 25.974 126.536 26.5443 126.359 27.0703C126.182 27.5911 125.924 28.0469 125.586 28.4375C125.247 28.8229 124.833 29.1224 124.344 29.3359C123.854 29.5495 123.294 29.6562 122.664 29.6562C122.039 29.6562 121.479 29.5495 120.984 29.3359C120.49 29.1224 120.073 28.8229 119.734 28.4375C119.396 28.0469 119.138 27.5911 118.961 27.0703C118.784 26.5443 118.695 25.974 118.695 25.3594ZM120.758 25.1953V25.3594C120.758 25.7292 120.794 26.0755 120.867 26.3984C120.94 26.7214 121.052 27.0052 121.203 27.25C121.354 27.4948 121.549 27.6875 121.789 27.8281C122.034 27.9635 122.326 28.0312 122.664 28.0312C122.997 28.0312 123.284 27.9635 123.523 27.8281C123.763 27.6875 123.958 27.4948 124.109 27.25C124.266 27.0052 124.38 26.7214 124.453 26.3984C124.526 26.0755 124.562 25.7292 124.562 25.3594V25.1953C124.562 24.8307 124.526 24.4896 124.453 24.1719C124.38 23.849 124.266 23.5651 124.109 23.3203C123.958 23.0703 123.76 22.875 123.516 22.7344C123.276 22.5885 122.987 22.5156 122.648 22.5156C122.315 22.5156 122.029 22.5885 121.789 22.7344C121.549 22.875 121.354 23.0703 121.203 23.3203C121.052 23.5651 120.94 23.849 120.867 24.1719C120.794 24.4896 120.758 24.8307 120.758 25.1953ZM130.828 29.5H128.75V20.2656C128.75 19.6302 128.872 19.0964 129.117 18.6641C129.362 18.2266 129.711 17.8958 130.164 17.6719C130.617 17.4479 131.151 17.3359 131.766 17.3359C131.969 17.3359 132.161 17.349 132.344 17.375C132.531 17.401 132.716 17.4375 132.898 17.4844L132.859 19.0547C132.76 19.0286 132.651 19.0104 132.531 19C132.417 18.9896 132.289 18.9844 132.148 18.9844C131.867 18.9844 131.628 19.0339 131.43 19.1328C131.232 19.2318 131.081 19.3776 130.977 19.5703C130.878 19.7578 130.828 19.9896 130.828 20.2656V29.5ZM132.539 21.0469V22.5312H127.477V21.0469H132.539ZM136.516 29.5H134.438V20.2656C134.438 19.6302 134.56 19.0964 134.805 18.6641C135.049 18.2266 135.398 17.8958 135.852 17.6719C136.305 17.4479 136.839 17.3359 137.453 17.3359C137.656 17.3359 137.849 17.349 138.031 17.375C138.219 17.401 138.404 17.4375 138.586 17.4844L138.547 19.0547C138.448 19.0286 138.339 19.0104 138.219 19C138.104 18.9896 137.977 18.9844 137.836 18.9844C137.555 18.9844 137.315 19.0339 137.117 19.1328C136.919 19.2318 136.768 19.3776 136.664 19.5703C136.565 19.7578 136.516 19.9896 136.516 20.2656V29.5ZM138.227 21.0469V22.5312H133.164V21.0469H138.227ZM143.109 29.6562C142.469 29.6562 141.893 29.5521 141.383 29.3438C140.872 29.1354 140.438 28.8464 140.078 28.4766C139.724 28.1016 139.451 27.6667 139.258 27.1719C139.07 26.6719 138.977 26.1354 138.977 25.5625V25.25C138.977 24.599 139.07 24.0078 139.258 23.4766C139.445 22.9401 139.711 22.4792 140.055 22.0938C140.398 21.7083 140.81 21.4115 141.289 21.2031C141.768 20.9948 142.297 20.8906 142.875 20.8906C143.474 20.8906 144.003 20.9922 144.461 21.1953C144.919 21.3932 145.302 21.6745 145.609 22.0391C145.917 22.4036 146.148 22.8411 146.305 23.3516C146.461 23.8568 146.539 24.4167 146.539 25.0312V25.8984H139.914V24.4766H144.508V24.3203C144.497 23.9922 144.435 23.6927 144.32 23.4219C144.206 23.1458 144.029 22.9271 143.789 22.7656C143.549 22.599 143.24 22.5156 142.859 22.5156C142.552 22.5156 142.284 22.5833 142.055 22.7188C141.831 22.849 141.643 23.0365 141.492 23.2812C141.346 23.5208 141.237 23.8073 141.164 24.1406C141.091 24.474 141.055 24.8438 141.055 25.25V25.5625C141.055 25.9167 141.102 26.2448 141.195 26.5469C141.294 26.849 141.438 27.112 141.625 27.3359C141.818 27.5547 142.047 27.7266 142.312 27.8516C142.583 27.9714 142.891 28.0312 143.234 28.0312C143.667 28.0312 144.057 27.9479 144.406 27.7812C144.76 27.6094 145.068 27.3568 145.328 27.0234L146.367 28.1016C146.19 28.362 145.951 28.612 145.648 28.8516C145.352 29.0911 144.992 29.2865 144.57 29.4375C144.148 29.5833 143.661 29.6562 143.109 29.6562ZM149.984 22.7734V29.5H147.922V21.0469H149.875L149.984 22.7734ZM152.555 20.9922L152.523 22.9141C152.409 22.8932 152.279 22.8776 152.133 22.8672C151.992 22.8568 151.859 22.8516 151.734 22.8516C151.417 22.8516 151.138 22.8958 150.898 22.9844C150.659 23.0677 150.458 23.1901 150.297 23.3516C150.141 23.513 150.021 23.7109 149.938 23.9453C149.854 24.1745 149.807 24.4349 149.797 24.7266L149.352 24.6719C149.352 24.1354 149.406 23.638 149.516 23.1797C149.625 22.7214 149.784 22.3203 149.992 21.9766C150.201 21.6328 150.461 21.3672 150.773 21.1797C151.091 20.987 151.456 20.8906 151.867 20.8906C151.982 20.8906 152.104 20.901 152.234 20.9219C152.37 20.9375 152.477 20.9609 152.555 20.9922Z" fill="#DE4313"/>
<path d="M410.26 23.3125V24.9453H405.986V23.3125H410.26ZM424.095 20.4609L423.704 21.9062H416.36L416.759 20.4609H424.095ZM420.438 29L416.587 24.4531L416.579 23.2031H418.438C418.892 23.2031 419.264 23.1198 419.556 22.9531C419.853 22.7812 420.074 22.5495 420.22 22.2578C420.371 21.9661 420.446 21.638 420.446 21.2734C420.446 20.8932 420.379 20.5573 420.243 20.2656C420.108 19.9688 419.892 19.737 419.595 19.5703C419.298 19.4036 418.905 19.3203 418.415 19.3203H416.368L416.813 17.625H418.415C419.342 17.625 420.113 17.7656 420.728 18.0469C421.347 18.3229 421.811 18.7266 422.118 19.2578C422.431 19.7839 422.587 20.4193 422.587 21.1641C422.587 21.8151 422.478 22.3906 422.259 22.8906C422.045 23.3854 421.699 23.7891 421.22 24.1016C420.741 24.4141 420.11 24.6224 419.329 24.7266L422.821 28.8906V29H420.438ZM424.103 17.625L423.704 19.0703H417.665L418.063 17.625H424.103ZM431.043 17.5938V29H428.973V20.0078L426.231 20.9141V19.2422L430.809 17.5938H431.043ZM442.898 25.8906C442.898 26.599 442.732 27.1979 442.398 27.6875C442.07 28.1719 441.62 28.5391 441.047 28.7891C440.479 29.0339 439.833 29.1562 439.109 29.1562C438.391 29.1562 437.742 29.0339 437.164 28.7891C436.591 28.5391 436.135 28.1719 435.797 27.6875C435.464 27.1979 435.297 26.599 435.297 25.8906C435.297 25.4167 435.391 24.987 435.578 24.6016C435.771 24.2161 436.036 23.8854 436.375 23.6094C436.714 23.3281 437.115 23.1146 437.578 22.9688C438.042 22.8177 438.547 22.7422 439.094 22.7422C439.823 22.7422 440.474 22.875 441.047 23.1406C441.625 23.401 442.078 23.7682 442.406 24.2422C442.734 24.7109 442.898 25.2604 442.898 25.8906ZM440.82 25.7656C440.82 25.401 440.747 25.0859 440.602 24.8203C440.461 24.5495 440.26 24.3411 440 24.1953C439.74 24.0495 439.438 23.9766 439.094 23.9766C438.745 23.9766 438.44 24.0495 438.18 24.1953C437.924 24.3411 437.724 24.5495 437.578 24.8203C437.438 25.0859 437.367 25.401 437.367 25.7656C437.367 26.1354 437.438 26.4531 437.578 26.7188C437.724 26.9792 437.927 27.1797 438.188 27.3203C438.448 27.4609 438.755 27.5312 439.109 27.5312C439.464 27.5312 439.768 27.4609 440.023 27.3203C440.279 27.1797 440.474 26.9792 440.609 26.7188C440.75 26.4531 440.82 26.1354 440.82 25.7656ZM442.648 20.625C442.648 21.1979 442.497 21.7083 442.195 22.1562C441.893 22.599 441.474 22.9453 440.938 23.1953C440.406 23.4453 439.797 23.5703 439.109 23.5703C438.422 23.5703 437.807 23.4453 437.266 23.1953C436.729 22.9453 436.307 22.599 436 22.1562C435.698 21.7083 435.547 21.1979 435.547 20.625C435.547 19.9479 435.701 19.375 436.008 18.9062C436.315 18.4323 436.734 18.0729 437.266 17.8281C437.802 17.5833 438.411 17.4609 439.094 17.4609C439.786 17.4609 440.401 17.5833 440.938 17.8281C441.474 18.0729 441.893 18.4323 442.195 18.9062C442.497 19.375 442.648 19.9479 442.648 20.625ZM440.586 20.7109C440.586 20.388 440.526 20.1068 440.406 19.8672C440.286 19.6224 440.115 19.4323 439.891 19.2969C439.672 19.1615 439.406 19.0938 439.094 19.0938C438.792 19.0938 438.531 19.1589 438.313 19.2891C438.094 19.4193 437.924 19.6068 437.805 19.8516C437.685 20.0911 437.625 20.3776 437.625 20.7109C437.625 21.0391 437.685 21.3255 437.805 21.5703C437.924 21.8151 438.094 22.0078 438.313 22.1484C438.536 22.2839 438.802 22.3516 439.109 22.3516C439.417 22.3516 439.68 22.2839 439.898 22.1484C440.117 22.0078 440.286 21.8151 440.406 21.5703C440.526 21.3255 440.586 21.0391 440.586 20.7109ZM447.027 27.1406L447.011 28.5703C447.011 29.1276 446.873 29.6927 446.597 30.2656C446.321 30.8385 445.964 31.3125 445.527 31.6875L444.433 31.0859C444.574 30.8516 444.704 30.6146 444.824 30.375C444.949 30.1354 445.048 29.875 445.121 29.5938C445.199 29.3177 445.238 29.0078 445.238 28.6641V27.1406H447.027ZM457.116 24.8516V26.4766H448.921L448.835 25.2266L453.655 17.625H455.304L453.523 20.6484L450.937 24.8516H457.116ZM455.765 17.625V29H453.694V17.625H455.765ZM466.37 22.3359V24.25C466.37 25.125 466.281 25.8724 466.104 26.4922C465.927 27.112 465.672 27.6198 465.338 28.0156C465.005 28.4062 464.607 28.6953 464.143 28.8828C463.68 29.0651 463.164 29.1562 462.596 29.1562C462.143 29.1562 461.721 29.099 461.331 28.9844C460.94 28.8646 460.588 28.6823 460.276 28.4375C459.969 28.1875 459.703 27.8698 459.479 27.4844C459.26 27.099 459.091 26.638 458.971 26.1016C458.857 25.5651 458.799 24.9479 458.799 24.25V22.3359C458.799 21.4609 458.888 20.7161 459.065 20.1016C459.247 19.487 459.505 18.9844 459.838 18.5938C460.172 18.2031 460.57 17.9193 461.034 17.7422C461.497 17.5599 462.013 17.4688 462.581 17.4688C463.039 17.4688 463.461 17.526 463.846 17.6406C464.237 17.7552 464.586 17.9349 464.893 18.1797C465.206 18.4193 465.471 18.7318 465.69 19.1172C465.909 19.4974 466.075 19.9557 466.19 20.4922C466.31 21.0234 466.37 21.638 466.37 22.3359ZM464.307 24.5312V22.0469C464.307 21.6094 464.281 21.2292 464.229 20.9062C464.182 20.5781 464.112 20.2995 464.018 20.0703C463.924 19.8411 463.807 19.6562 463.667 19.5156C463.526 19.3698 463.364 19.263 463.182 19.1953C463 19.1276 462.799 19.0938 462.581 19.0938C462.31 19.0938 462.068 19.1484 461.854 19.2578C461.641 19.362 461.461 19.5286 461.315 19.7578C461.169 19.987 461.057 20.2917 460.979 20.6719C460.906 21.0469 460.87 21.5052 460.87 22.0469V24.5312C460.87 24.9688 460.893 25.3516 460.94 25.6797C460.992 26.0078 461.065 26.2891 461.159 26.5234C461.258 26.7578 461.375 26.9505 461.51 27.1016C461.651 27.2474 461.812 27.3568 461.995 27.4297C462.177 27.4974 462.378 27.5312 462.596 27.5312C462.872 27.5312 463.114 27.4766 463.323 27.3672C463.536 27.2578 463.716 27.0859 463.862 26.8516C464.008 26.612 464.117 26.3021 464.19 25.9219C464.268 25.5365 464.307 25.0729 464.307 24.5312ZM473.772 17.5938V29H471.701V20.0078L468.959 20.9141V19.2422L473.537 17.5938H473.772Z" fill="#3C4852"/>
<path d="M35 47V53L40.2 56.1L41 54.9L36.5 52.2V47H35ZM44 52V58H46V52H44ZM44 60V62H46V60H44ZM42 60C40.3 61.3 38.3 62 36 62C30.5 62 26 57.5 26 52C26 46.5 30.5 42 36 42C40.8 42 44.9 45.4 45.8 50H43.7C42.8 46.6 39.7 44 36 44C31.6 44 28 47.6 28 52C28 56.4 31.6 60 36 60C38.4 60 40.5 58.9 42 57.3V60Z" fill="#DE4313"/>
<path d="M65.04 51.209V51.8379C65.04 52.5853 64.9466 53.2552 64.7598 53.8477C64.5729 54.4401 64.304 54.9437 63.9531 55.3584C63.6022 55.7731 63.1807 56.0898 62.6885 56.3086C62.2008 56.5273 61.654 56.6367 61.0479 56.6367C60.46 56.6367 59.9199 56.5273 59.4277 56.3086C58.9401 56.0898 58.5163 55.7731 58.1562 55.3584C57.8008 54.9437 57.5251 54.4401 57.3291 53.8477C57.1331 53.2552 57.0352 52.5853 57.0352 51.8379V51.209C57.0352 50.4616 57.1309 49.7939 57.3223 49.2061C57.5182 48.6136 57.7939 48.11 58.1494 47.6953C58.5049 47.276 58.9264 46.957 59.4141 46.7383C59.9062 46.5195 60.4463 46.4102 61.0342 46.4102C61.6403 46.4102 62.1872 46.5195 62.6748 46.7383C63.167 46.957 63.5885 47.276 63.9395 47.6953C64.2949 48.11 64.5661 48.6136 64.7529 49.2061C64.9443 49.7939 65.04 50.4616 65.04 51.209ZM63.7344 51.8379V51.1953C63.7344 50.6029 63.6729 50.0788 63.5498 49.623C63.4313 49.1673 63.2559 48.7845 63.0234 48.4746C62.791 48.1647 62.5062 47.93 62.1689 47.7705C61.8363 47.611 61.458 47.5312 61.0342 47.5312C60.624 47.5312 60.2526 47.611 59.9199 47.7705C59.5918 47.93 59.3092 48.1647 59.0723 48.4746C58.8398 48.7845 58.6598 49.1673 58.5322 49.623C58.4046 50.0788 58.3408 50.6029 58.3408 51.1953V51.8379C58.3408 52.4349 58.4046 52.9635 58.5322 53.4238C58.6598 53.8796 58.8421 54.2646 59.0791 54.5791C59.3206 54.889 59.6055 55.1237 59.9336 55.2832C60.2663 55.4427 60.6377 55.5225 61.0479 55.5225C61.4762 55.5225 61.8568 55.4427 62.1895 55.2832C62.5221 55.1237 62.8024 54.889 63.0303 54.5791C63.2627 54.2646 63.4382 53.8796 63.5566 53.4238C63.6751 52.9635 63.7344 52.4349 63.7344 51.8379ZM68.7109 56.5H67.4463V48.3242C67.4463 47.791 67.542 47.3421 67.7334 46.9775C67.9294 46.6084 68.2096 46.3304 68.5742 46.1436C68.9388 45.9521 69.3717 45.8564 69.873 45.8564C70.0189 45.8564 70.1647 45.8656 70.3105 45.8838C70.4609 45.902 70.6068 45.9294 70.748 45.9658L70.6797 46.998C70.584 46.9753 70.4746 46.9593 70.3516 46.9502C70.2331 46.9411 70.1146 46.9365 69.9961 46.9365C69.7272 46.9365 69.4948 46.9912 69.2988 47.1006C69.1074 47.2054 68.9616 47.3604 68.8613 47.5654C68.7611 47.7705 68.7109 48.0234 68.7109 48.3242V56.5ZM70.2832 49.1035V50.0742H66.2773V49.1035H70.2832ZM73.5781 56.5H72.3135V48.3242C72.3135 47.791 72.4092 47.3421 72.6006 46.9775C72.7965 46.6084 73.0768 46.3304 73.4414 46.1436C73.806 45.9521 74.2389 45.8564 74.7402 45.8564C74.8861 45.8564 75.0319 45.8656 75.1777 45.8838C75.3281 45.902 75.474 45.9294 75.6152 45.9658L75.5469 46.998C75.4512 46.9753 75.3418 46.9593 75.2188 46.9502C75.1003 46.9411 74.9818 46.9365 74.8633 46.9365C74.5944 46.9365 74.362 46.9912 74.166 47.1006C73.9746 47.2054 73.8288 47.3604 73.7285 47.5654C73.6283 47.7705 73.5781 48.0234 73.5781 48.3242V56.5ZM75.1504 49.1035V50.0742H71.1445V49.1035H75.1504ZM79.4639 56.6367C78.9489 56.6367 78.4818 56.5501 78.0625 56.377C77.6478 56.1992 77.29 55.9508 76.9893 55.6318C76.693 55.3128 76.4652 54.9346 76.3057 54.4971C76.1462 54.0596 76.0664 53.5811 76.0664 53.0615V52.7744C76.0664 52.1729 76.1553 51.6374 76.333 51.168C76.5107 50.694 76.7523 50.293 77.0576 49.9648C77.363 49.6367 77.7093 49.3883 78.0967 49.2197C78.484 49.0511 78.8851 48.9668 79.2998 48.9668C79.8285 48.9668 80.2842 49.0579 80.667 49.2402C81.0544 49.4225 81.3711 49.6777 81.6172 50.0059C81.8633 50.3294 82.0456 50.7122 82.1641 51.1543C82.2826 51.5918 82.3418 52.0703 82.3418 52.5898V53.1572H76.8184V52.125H81.0771V52.0293C81.0589 51.7012 80.9906 51.3822 80.8721 51.0723C80.7581 50.7624 80.5758 50.5072 80.3252 50.3066C80.0745 50.1061 79.7327 50.0059 79.2998 50.0059C79.0127 50.0059 78.7484 50.0674 78.5068 50.1904C78.2653 50.3089 78.0579 50.4867 77.8848 50.7236C77.7116 50.9606 77.5771 51.25 77.4814 51.5918C77.3857 51.9336 77.3379 52.3278 77.3379 52.7744V53.0615C77.3379 53.4124 77.3857 53.7428 77.4814 54.0527C77.5817 54.3581 77.7253 54.627 77.9121 54.8594C78.1035 55.0918 78.3337 55.2741 78.6025 55.4062C78.876 55.5384 79.1859 55.6045 79.5322 55.6045C79.9788 55.6045 80.3571 55.5133 80.667 55.3311C80.9769 55.1488 81.248 54.9049 81.4805 54.5996L82.2461 55.208C82.0866 55.4495 81.8838 55.6797 81.6377 55.8984C81.3916 56.1172 81.0885 56.2949 80.7285 56.4316C80.373 56.5684 79.9515 56.6367 79.4639 56.6367ZM85.083 50.2656V56.5H83.8184V49.1035H85.0488L85.083 50.2656ZM87.3936 49.0625L87.3867 50.2383C87.2819 50.2155 87.1816 50.2018 87.0859 50.1973C86.9948 50.1882 86.89 50.1836 86.7715 50.1836C86.4798 50.1836 86.2223 50.2292 85.999 50.3203C85.7757 50.4115 85.5866 50.5391 85.4316 50.7031C85.2767 50.8672 85.1536 51.0632 85.0625 51.291C84.9759 51.5143 84.9189 51.7604 84.8916 52.0293L84.5361 52.2344C84.5361 51.7878 84.5794 51.3685 84.666 50.9766C84.7572 50.5846 84.8962 50.2383 85.083 49.9375C85.2699 49.6322 85.5068 49.3952 85.7939 49.2266C86.0856 49.0534 86.432 48.9668 86.833 48.9668C86.9242 48.9668 87.029 48.9782 87.1475 49.001C87.266 49.0192 87.348 49.0397 87.3936 49.0625ZM94.2842 55.3584L96.3076 49.1035H97.5996L94.9404 56.5H94.0928L94.2842 55.3584ZM92.5957 49.1035L94.6807 55.3926L94.8242 56.5H93.9766L91.2969 49.1035H92.5957ZM103.068 55.2354V51.4277C103.068 51.1361 103.009 50.8831 102.891 50.6689C102.777 50.4502 102.604 50.2816 102.371 50.1631C102.139 50.0446 101.852 49.9854 101.51 49.9854C101.191 49.9854 100.91 50.04 100.669 50.1494C100.432 50.2588 100.245 50.4023 100.108 50.5801C99.9762 50.7578 99.9102 50.9492 99.9102 51.1543H98.6455C98.6455 50.89 98.7139 50.6279 98.8506 50.3682C98.9873 50.1084 99.1833 49.8737 99.4385 49.6641C99.6982 49.4499 100.008 49.2812 100.368 49.1582C100.733 49.0306 101.138 48.9668 101.585 48.9668C102.123 48.9668 102.597 49.0579 103.007 49.2402C103.422 49.4225 103.745 49.6982 103.978 50.0674C104.215 50.432 104.333 50.89 104.333 51.4414V54.8867C104.333 55.1328 104.354 55.3949 104.395 55.6729C104.44 55.9508 104.506 56.1901 104.593 56.3906V56.5H103.273C103.21 56.3542 103.16 56.1605 103.123 55.9189C103.087 55.6729 103.068 55.445 103.068 55.2354ZM103.287 52.0156L103.301 52.9043H102.022C101.662 52.9043 101.341 52.9339 101.059 52.9932C100.776 53.0479 100.539 53.1322 100.348 53.2461C100.156 53.36 100.01 53.5036 99.9102 53.6768C99.8099 53.8454 99.7598 54.0436 99.7598 54.2715C99.7598 54.5039 99.8122 54.7158 99.917 54.9072C100.022 55.0986 100.179 55.2513 100.389 55.3652C100.603 55.4746 100.865 55.5293 101.175 55.5293C101.562 55.5293 101.904 55.4473 102.2 55.2832C102.496 55.1191 102.731 54.9186 102.904 54.6816C103.082 54.4447 103.178 54.2145 103.191 53.9912L103.731 54.5996C103.7 54.791 103.613 55.0029 103.472 55.2354C103.33 55.4678 103.141 55.6911 102.904 55.9053C102.672 56.1149 102.394 56.2904 102.07 56.4316C101.751 56.5684 101.391 56.6367 100.99 56.6367C100.489 56.6367 100.049 56.5387 99.6709 56.3428C99.2972 56.1468 99.0055 55.8848 98.7959 55.5566C98.5908 55.224 98.4883 54.8525 98.4883 54.4424C98.4883 54.0459 98.5658 53.6973 98.7207 53.3965C98.8757 53.0911 99.099 52.8382 99.3906 52.6377C99.6823 52.4326 100.033 52.2777 100.443 52.1729C100.854 52.068 101.312 52.0156 101.817 52.0156H103.287ZM107.696 46V56.5H106.425V46H107.696ZM111.101 49.1035V56.5H109.829V49.1035H111.101ZM109.733 47.1416C109.733 46.9365 109.795 46.7633 109.918 46.6221C110.046 46.4808 110.232 46.4102 110.479 46.4102C110.72 46.4102 110.905 46.4808 111.032 46.6221C111.164 46.7633 111.23 46.9365 111.23 47.1416C111.23 47.3376 111.164 47.5062 111.032 47.6475C110.905 47.7842 110.72 47.8525 110.479 47.8525C110.232 47.8525 110.046 47.7842 109.918 47.6475C109.795 47.5062 109.733 47.3376 109.733 47.1416ZM117.793 55.0645V46H119.064V56.5H117.902L117.793 55.0645ZM112.816 52.8838V52.7402C112.816 52.1751 112.885 51.6624 113.021 51.2021C113.163 50.7373 113.361 50.3385 113.616 50.0059C113.876 49.6732 114.184 49.418 114.539 49.2402C114.899 49.0579 115.3 48.9668 115.742 48.9668C116.207 48.9668 116.613 49.0488 116.959 49.2129C117.31 49.3724 117.606 49.6071 117.848 49.917C118.094 50.2223 118.287 50.5915 118.429 51.0244C118.57 51.4574 118.668 51.9473 118.723 52.4941V53.123C118.673 53.6654 118.575 54.153 118.429 54.5859C118.287 55.0189 118.094 55.388 117.848 55.6934C117.606 55.9987 117.31 56.2334 116.959 56.3975C116.608 56.557 116.198 56.6367 115.729 56.6367C115.296 56.6367 114.899 56.5433 114.539 56.3564C114.184 56.1696 113.876 55.9076 113.616 55.5703C113.361 55.2331 113.163 54.8366 113.021 54.3809C112.885 53.9206 112.816 53.4215 112.816 52.8838ZM114.088 52.7402V52.8838C114.088 53.2529 114.124 53.5993 114.197 53.9229C114.275 54.2464 114.393 54.5312 114.553 54.7773C114.712 55.0234 114.915 55.2171 115.161 55.3584C115.407 55.4951 115.701 55.5635 116.043 55.5635C116.462 55.5635 116.806 55.4746 117.075 55.2969C117.349 55.1191 117.567 54.8844 117.731 54.5928C117.896 54.3011 118.023 53.9844 118.114 53.6426V51.9951C118.06 51.7445 117.98 51.5029 117.875 51.2705C117.775 51.0335 117.643 50.8239 117.479 50.6416C117.319 50.4548 117.121 50.3066 116.884 50.1973C116.651 50.0879 116.376 50.0332 116.057 50.0332C115.71 50.0332 115.412 50.1061 115.161 50.252C114.915 50.3932 114.712 50.5892 114.553 50.8398C114.393 51.0859 114.275 51.373 114.197 51.7012C114.124 52.0247 114.088 52.3711 114.088 52.7402ZM127.603 49.1035V50.0742H123.604V49.1035H127.603ZM124.957 47.3057H126.222V54.668C126.222 54.9186 126.26 55.1077 126.338 55.2354C126.415 55.363 126.516 55.4473 126.639 55.4883C126.762 55.5293 126.894 55.5498 127.035 55.5498C127.14 55.5498 127.249 55.5407 127.363 55.5225C127.482 55.4997 127.571 55.4814 127.63 55.4678L127.637 56.5C127.536 56.5319 127.404 56.5615 127.24 56.5889C127.081 56.6208 126.887 56.6367 126.659 56.6367C126.349 56.6367 126.064 56.5752 125.805 56.4521C125.545 56.3291 125.338 56.124 125.183 55.8369C125.032 55.5452 124.957 55.1533 124.957 54.6611V47.3057ZM130.46 49.1035V56.5H129.188V49.1035H130.46ZM129.093 47.1416C129.093 46.9365 129.154 46.7633 129.277 46.6221C129.405 46.4808 129.592 46.4102 129.838 46.4102C130.079 46.4102 130.264 46.4808 130.392 46.6221C130.524 46.7633 130.59 46.9365 130.59 47.1416C130.59 47.3376 130.524 47.5062 130.392 47.6475C130.264 47.7842 130.079 47.8525 129.838 47.8525C129.592 47.8525 129.405 47.7842 129.277 47.6475C129.154 47.5062 129.093 47.3376 129.093 47.1416ZM133.864 46V56.5H132.593V46H133.864ZM137.269 46V56.5H135.997V46H137.269ZM149.156 55.4609V56.5H142.642V55.5908L145.902 51.9609C146.303 51.5143 146.613 51.1361 146.832 50.8262C147.055 50.5117 147.21 50.2314 147.297 49.9854C147.388 49.7347 147.434 49.4795 147.434 49.2197C147.434 48.8916 147.365 48.5954 147.229 48.3311C147.096 48.0622 146.9 47.848 146.641 47.6885C146.381 47.529 146.066 47.4492 145.697 47.4492C145.255 47.4492 144.886 47.5358 144.59 47.709C144.298 47.8776 144.079 48.1146 143.934 48.4199C143.788 48.7253 143.715 49.0762 143.715 49.4727H142.45C142.45 48.9121 142.573 48.3994 142.819 47.9346C143.065 47.4697 143.43 47.1006 143.913 46.8271C144.396 46.5492 144.991 46.4102 145.697 46.4102C146.326 46.4102 146.864 46.5218 147.311 46.7451C147.757 46.9639 148.099 47.2738 148.336 47.6748C148.577 48.0713 148.698 48.5361 148.698 49.0693C148.698 49.361 148.648 49.6572 148.548 49.958C148.452 50.2542 148.318 50.5505 148.145 50.8467C147.976 51.1429 147.778 51.4346 147.55 51.7217C147.326 52.0088 147.087 52.2913 146.832 52.5693L144.166 55.4609H149.156ZM152.109 51.7627L151.098 51.5029L151.597 46.5469H156.703V47.7158H152.67L152.369 50.4229C152.551 50.318 152.782 50.2201 153.06 50.1289C153.342 50.0378 153.666 49.9922 154.03 49.9922C154.491 49.9922 154.903 50.0719 155.268 50.2314C155.632 50.3864 155.942 50.6097 156.197 50.9014C156.457 51.193 156.655 51.5439 156.792 51.9541C156.929 52.3643 156.997 52.8223 156.997 53.3281C156.997 53.8066 156.931 54.2464 156.799 54.6475C156.671 55.0485 156.478 55.3994 156.218 55.7002C155.958 55.9964 155.63 56.2266 155.233 56.3906C154.841 56.5547 154.379 56.6367 153.846 56.6367C153.445 56.6367 153.064 56.582 152.704 56.4727C152.349 56.3587 152.03 56.1878 151.747 55.96C151.469 55.7275 151.241 55.4404 151.063 55.0986C150.89 54.7523 150.781 54.3467 150.735 53.8818H151.938C151.993 54.2555 152.103 54.57 152.267 54.8252C152.431 55.0804 152.645 55.2741 152.909 55.4062C153.178 55.5339 153.49 55.5977 153.846 55.5977C154.146 55.5977 154.413 55.5452 154.646 55.4404C154.878 55.3356 155.074 55.1852 155.233 54.9893C155.393 54.7933 155.514 54.5563 155.596 54.2783C155.682 54.0003 155.726 53.6882 155.726 53.3418C155.726 53.0273 155.682 52.7357 155.596 52.4668C155.509 52.1979 155.379 51.9632 155.206 51.7627C155.037 51.5622 154.83 51.4072 154.584 51.2979C154.338 51.1839 154.055 51.127 153.736 51.127C153.312 51.127 152.991 51.1839 152.772 51.2979C152.558 51.4118 152.337 51.5667 152.109 51.7627ZM161.618 49.1035V50.0742H157.619V49.1035H161.618ZM158.973 47.3057H160.237V54.668C160.237 54.9186 160.276 55.1077 160.354 55.2354C160.431 55.363 160.531 55.4473 160.654 55.4883C160.777 55.5293 160.91 55.5498 161.051 55.5498C161.156 55.5498 161.265 55.5407 161.379 55.5225C161.497 55.4997 161.586 55.4814 161.646 55.4678L161.652 56.5C161.552 56.5319 161.42 56.5615 161.256 56.5889C161.096 56.6208 160.903 56.6367 160.675 56.6367C160.365 56.6367 160.08 56.5752 159.82 56.4521C159.561 56.3291 159.353 56.124 159.198 55.8369C159.048 55.5452 158.973 55.1533 158.973 54.6611V47.3057ZM164.366 46V56.5H163.102V46H164.366ZM164.065 52.5215L163.539 52.501C163.544 51.9951 163.619 51.528 163.765 51.0996C163.91 50.6667 164.116 50.2907 164.38 49.9717C164.644 49.6527 164.959 49.4066 165.323 49.2334C165.692 49.0557 166.1 48.9668 166.547 48.9668C166.911 48.9668 167.24 49.0169 167.531 49.1172C167.823 49.2129 168.071 49.3678 168.276 49.582C168.486 49.7962 168.646 50.0742 168.755 50.416C168.864 50.7533 168.919 51.1657 168.919 51.6533V56.5H167.647V51.6396C167.647 51.2523 167.59 50.9424 167.477 50.71C167.363 50.473 167.196 50.3021 166.978 50.1973C166.759 50.0879 166.49 50.0332 166.171 50.0332C165.856 50.0332 165.569 50.0993 165.31 50.2314C165.054 50.3636 164.833 50.5459 164.646 50.7783C164.464 51.0107 164.321 51.2773 164.216 51.5781C164.116 51.8743 164.065 52.1888 164.065 52.5215ZM174.894 46.5469H176.172L179.433 54.6611L182.687 46.5469H183.972L179.925 56.5H178.927L174.894 46.5469ZM174.477 46.5469H175.604L175.789 52.6172V56.5H174.477V46.5469ZM183.254 46.5469H184.382V56.5H183.069V52.6172L183.254 46.5469ZM190.869 55.2354V51.4277C190.869 51.1361 190.81 50.8831 190.691 50.6689C190.577 50.4502 190.404 50.2816 190.172 50.1631C189.939 50.0446 189.652 49.9854 189.311 49.9854C188.992 49.9854 188.711 50.04 188.47 50.1494C188.233 50.2588 188.046 50.4023 187.909 50.5801C187.777 50.7578 187.711 50.9492 187.711 51.1543H186.446C186.446 50.89 186.515 50.6279 186.651 50.3682C186.788 50.1084 186.984 49.8737 187.239 49.6641C187.499 49.4499 187.809 49.2812 188.169 49.1582C188.534 49.0306 188.939 48.9668 189.386 48.9668C189.924 48.9668 190.397 49.0579 190.808 49.2402C191.222 49.4225 191.546 49.6982 191.778 50.0674C192.015 50.432 192.134 50.89 192.134 51.4414V54.8867C192.134 55.1328 192.154 55.3949 192.195 55.6729C192.241 55.9508 192.307 56.1901 192.394 56.3906V56.5H191.074C191.01 56.3542 190.96 56.1605 190.924 55.9189C190.887 55.6729 190.869 55.445 190.869 55.2354ZM191.088 52.0156L191.102 52.9043H189.823C189.463 52.9043 189.142 52.9339 188.859 52.9932C188.577 53.0479 188.34 53.1322 188.148 53.2461C187.957 53.36 187.811 53.5036 187.711 53.6768C187.611 53.8454 187.561 54.0436 187.561 54.2715C187.561 54.5039 187.613 54.7158 187.718 54.9072C187.823 55.0986 187.98 55.2513 188.189 55.3652C188.404 55.4746 188.666 55.5293 188.976 55.5293C189.363 55.5293 189.705 55.4473 190.001 55.2832C190.297 55.1191 190.532 54.9186 190.705 54.6816C190.883 54.4447 190.979 54.2145 190.992 53.9912L191.532 54.5996C191.5 54.791 191.414 55.0029 191.272 55.2354C191.131 55.4678 190.942 55.6911 190.705 55.9053C190.473 56.1149 190.195 56.2904 189.871 56.4316C189.552 56.5684 189.192 56.6367 188.791 56.6367C188.29 56.6367 187.85 56.5387 187.472 56.3428C187.098 56.1468 186.806 55.8848 186.597 55.5566C186.392 55.224 186.289 54.8525 186.289 54.4424C186.289 54.0459 186.367 53.6973 186.521 53.3965C186.676 53.0911 186.9 52.8382 187.191 52.6377C187.483 52.4326 187.834 52.2777 188.244 52.1729C188.654 52.068 189.112 52.0156 189.618 52.0156H191.088ZM195.388 50.2656V56.5H194.123V49.1035H195.354L195.388 50.2656ZM197.698 49.0625L197.691 50.2383C197.587 50.2155 197.486 50.2018 197.391 50.1973C197.299 50.1882 197.195 50.1836 197.076 50.1836C196.785 50.1836 196.527 50.2292 196.304 50.3203C196.08 50.4115 195.891 50.5391 195.736 50.7031C195.581 50.8672 195.458 51.0632 195.367 51.291C195.281 51.5143 195.224 51.7604 195.196 52.0293L194.841 52.2344C194.841 51.7878 194.884 51.3685 194.971 50.9766C195.062 50.5846 195.201 50.2383 195.388 49.9375C195.575 49.6322 195.812 49.3952 196.099 49.2266C196.39 49.0534 196.737 48.9668 197.138 48.9668C197.229 48.9668 197.334 48.9782 197.452 49.001C197.571 49.0192 197.653 49.0397 197.698 49.0625ZM201.69 55.5977C201.991 55.5977 202.269 55.5361 202.524 55.4131C202.78 55.29 202.989 55.1214 203.153 54.9072C203.317 54.6885 203.411 54.4401 203.434 54.1621H204.637C204.614 54.5996 204.466 55.0075 204.192 55.3857C203.924 55.7594 203.57 56.0625 203.133 56.2949C202.695 56.5228 202.215 56.6367 201.69 56.6367C201.134 56.6367 200.649 56.5387 200.234 56.3428C199.824 56.1468 199.482 55.8779 199.209 55.5361C198.94 55.1943 198.737 54.8024 198.601 54.3604C198.468 53.9137 198.402 53.4421 198.402 52.9453V52.6582C198.402 52.1615 198.468 51.6921 198.601 51.25C198.737 50.8034 198.94 50.4092 199.209 50.0674C199.482 49.7256 199.824 49.4567 200.234 49.2607C200.649 49.0648 201.134 48.9668 201.69 48.9668C202.269 48.9668 202.775 49.0853 203.208 49.3223C203.641 49.5547 203.98 49.8737 204.227 50.2793C204.477 50.6803 204.614 51.1361 204.637 51.6465H203.434C203.411 51.3411 203.324 51.0654 203.174 50.8193C203.028 50.5732 202.827 50.3773 202.572 50.2314C202.322 50.0811 202.028 50.0059 201.69 50.0059C201.303 50.0059 200.977 50.0833 200.713 50.2383C200.453 50.3887 200.246 50.5938 200.091 50.8535C199.94 51.1087 199.831 51.3936 199.763 51.708C199.699 52.0179 199.667 52.3346 199.667 52.6582V52.9453C199.667 53.2689 199.699 53.5879 199.763 53.9023C199.826 54.2168 199.934 54.5016 200.084 54.7568C200.239 55.012 200.446 55.2171 200.706 55.3721C200.97 55.5225 201.299 55.5977 201.69 55.5977ZM207.323 46V56.5H206.059V46H207.323ZM207.022 52.5215L206.496 52.501C206.501 51.9951 206.576 51.528 206.722 51.0996C206.868 50.6667 207.073 50.2907 207.337 49.9717C207.601 49.6527 207.916 49.4066 208.28 49.2334C208.649 49.0557 209.057 48.9668 209.504 48.9668C209.868 48.9668 210.197 49.0169 210.488 49.1172C210.78 49.2129 211.028 49.3678 211.233 49.582C211.443 49.7962 211.603 50.0742 211.712 50.416C211.821 50.7533 211.876 51.1657 211.876 51.6533V56.5H210.604V51.6396C210.604 51.2523 210.548 50.9424 210.434 50.71C210.32 50.473 210.153 50.3021 209.935 50.1973C209.716 50.0879 209.447 50.0332 209.128 50.0332C208.813 50.0332 208.526 50.0993 208.267 50.2314C208.011 50.3636 207.79 50.5459 207.604 50.7783C207.421 51.0107 207.278 51.2773 207.173 51.5781C207.073 51.8743 207.022 52.1888 207.022 52.5215ZM223.627 55.4609V56.5H217.112V55.5908L220.373 51.9609C220.774 51.5143 221.084 51.1361 221.303 50.8262C221.526 50.5117 221.681 50.2314 221.768 49.9854C221.859 49.7347 221.904 49.4795 221.904 49.2197C221.904 48.8916 221.836 48.5954 221.699 48.3311C221.567 48.0622 221.371 47.848 221.111 47.6885C220.852 47.529 220.537 47.4492 220.168 47.4492C219.726 47.4492 219.357 47.5358 219.061 47.709C218.769 47.8776 218.55 48.1146 218.404 48.4199C218.258 48.7253 218.186 49.0762 218.186 49.4727H216.921C216.921 48.9121 217.044 48.3994 217.29 47.9346C217.536 47.4697 217.901 47.1006 218.384 46.8271C218.867 46.5492 219.462 46.4102 220.168 46.4102C220.797 46.4102 221.335 46.5218 221.781 46.7451C222.228 46.9639 222.57 47.2738 222.807 47.6748C223.048 48.0713 223.169 48.5361 223.169 49.0693C223.169 49.361 223.119 49.6572 223.019 49.958C222.923 50.2542 222.788 50.5505 222.615 50.8467C222.447 51.1429 222.248 51.4346 222.021 51.7217C221.797 52.0088 221.558 52.2913 221.303 52.5693L218.637 55.4609H223.627ZM231.229 50.7305V52.248C231.229 53.0638 231.156 53.752 231.01 54.3125C230.864 54.873 230.654 55.3242 230.381 55.666C230.107 56.0078 229.777 56.2562 229.39 56.4111C229.007 56.5615 228.574 56.6367 228.091 56.6367C227.708 56.6367 227.355 56.5889 227.031 56.4932C226.708 56.3975 226.416 56.2448 226.156 56.0352C225.901 55.821 225.682 55.543 225.5 55.2012C225.318 54.8594 225.179 54.4447 225.083 53.957C224.987 53.4694 224.939 52.8997 224.939 52.248V50.7305C224.939 49.9147 225.012 49.2311 225.158 48.6797C225.309 48.1283 225.521 47.6862 225.794 47.3535C226.067 47.0163 226.396 46.7747 226.778 46.6289C227.166 46.4831 227.599 46.4102 228.077 46.4102C228.465 46.4102 228.82 46.458 229.144 46.5537C229.472 46.6449 229.763 46.793 230.019 46.998C230.274 47.1986 230.49 47.4674 230.668 47.8047C230.85 48.1374 230.989 48.5452 231.085 49.0283C231.181 49.5114 231.229 50.0788 231.229 50.7305ZM229.957 52.4531V50.5186C229.957 50.0719 229.93 49.68 229.875 49.3428C229.825 49.001 229.75 48.7093 229.649 48.4678C229.549 48.2262 229.422 48.0303 229.267 47.8799C229.116 47.7295 228.941 47.6201 228.74 47.5518C228.544 47.4788 228.323 47.4424 228.077 47.4424C227.776 47.4424 227.51 47.4993 227.277 47.6133C227.045 47.7227 226.849 47.8981 226.689 48.1396C226.535 48.3812 226.416 48.6979 226.334 49.0898C226.252 49.4818 226.211 49.958 226.211 50.5186V52.4531C226.211 52.8997 226.236 53.2939 226.286 53.6357C226.341 53.9775 226.421 54.2738 226.525 54.5244C226.63 54.7705 226.758 54.9733 226.908 55.1328C227.059 55.2923 227.232 55.4108 227.428 55.4883C227.628 55.5612 227.849 55.5977 228.091 55.5977C228.401 55.5977 228.672 55.5384 228.904 55.4199C229.137 55.3014 229.33 55.1169 229.485 54.8662C229.645 54.611 229.763 54.2852 229.841 53.8887C229.918 53.4876 229.957 53.0091 229.957 52.4531ZM239.377 55.4609V56.5H232.862V55.5908L236.123 51.9609C236.524 51.5143 236.834 51.1361 237.053 50.8262C237.276 50.5117 237.431 50.2314 237.518 49.9854C237.609 49.7347 237.654 49.4795 237.654 49.2197C237.654 48.8916 237.586 48.5954 237.449 48.3311C237.317 48.0622 237.121 47.848 236.861 47.6885C236.602 47.529 236.287 47.4492 235.918 47.4492C235.476 47.4492 235.107 47.5358 234.811 47.709C234.519 47.8776 234.3 48.1146 234.154 48.4199C234.008 48.7253 233.936 49.0762 233.936 49.4727H232.671C232.671 48.9121 232.794 48.3994 233.04 47.9346C233.286 47.4697 233.651 47.1006 234.134 46.8271C234.617 46.5492 235.212 46.4102 235.918 46.4102C236.547 46.4102 237.085 46.5218 237.531 46.7451C237.978 46.9639 238.32 47.2738 238.557 47.6748C238.798 48.0713 238.919 48.5361 238.919 49.0693C238.919 49.361 238.869 49.6572 238.769 49.958C238.673 50.2542 238.538 50.5505 238.365 50.8467C238.197 51.1429 237.998 51.4346 237.771 51.7217C237.547 52.0088 237.308 52.2913 237.053 52.5693L234.387 55.4609H239.377ZM242.576 50.9014H243.479C243.921 50.9014 244.285 50.8285 244.572 50.6826C244.864 50.5322 245.08 50.3294 245.222 50.0742C245.368 49.8145 245.44 49.5228 245.44 49.1992C245.44 48.8164 245.377 48.4951 245.249 48.2354C245.121 47.9756 244.93 47.7796 244.675 47.6475C244.42 47.5153 244.096 47.4492 243.704 47.4492C243.349 47.4492 243.034 47.5199 242.761 47.6611C242.492 47.7979 242.28 47.9938 242.125 48.249C241.975 48.5042 241.899 48.805 241.899 49.1514H240.635C240.635 48.6455 240.762 48.1852 241.018 47.7705C241.273 47.3558 241.631 47.0254 242.091 46.7793C242.556 46.5332 243.093 46.4102 243.704 46.4102C244.306 46.4102 244.832 46.5173 245.283 46.7314C245.734 46.9411 246.085 47.2555 246.336 47.6748C246.587 48.0895 246.712 48.6068 246.712 49.2266C246.712 49.4772 246.653 49.7461 246.534 50.0332C246.42 50.3158 246.24 50.5801 245.994 50.8262C245.753 51.0723 245.438 51.2751 245.051 51.4346C244.663 51.5895 244.199 51.667 243.656 51.667H242.576V50.9014ZM242.576 51.9404V51.1816H243.656C244.29 51.1816 244.814 51.2568 245.229 51.4072C245.643 51.5576 245.969 51.7581 246.206 52.0088C246.448 52.2594 246.616 52.5352 246.712 52.8359C246.812 53.1322 246.862 53.4284 246.862 53.7246C246.862 54.1895 246.783 54.6019 246.623 54.9619C246.468 55.3219 246.247 55.6273 245.96 55.8779C245.677 56.1286 245.345 56.3177 244.962 56.4453C244.579 56.5729 244.162 56.6367 243.711 56.6367C243.278 56.6367 242.87 56.5752 242.487 56.4521C242.109 56.3291 241.774 56.1514 241.482 55.9189C241.191 55.682 240.963 55.3926 240.799 55.0508C240.635 54.7044 240.553 54.3102 240.553 53.8682H241.817C241.817 54.2145 241.893 54.5176 242.043 54.7773C242.198 55.0371 242.417 55.2399 242.699 55.3857C242.986 55.527 243.324 55.5977 243.711 55.5977C244.098 55.5977 244.431 55.5316 244.709 55.3994C244.992 55.2627 245.208 55.0576 245.358 54.7842C245.513 54.5107 245.591 54.1667 245.591 53.752C245.591 53.3372 245.504 52.9977 245.331 52.7334C245.158 52.4645 244.912 52.2663 244.593 52.1387C244.278 52.0065 243.907 51.9404 243.479 51.9404H242.576Z" fill="#DE4313"/>
<rect x="1" y="1" width="499" height="74" rx="7" stroke="url(#paint1_linear_1_1017)" stroke-width="2"/>
<defs>
<linearGradient id="paint0_linear_1_1017" x1="0" y1="0" x2="22.5392" y2="148.581" gradientUnits="userSpaceOnUse">
<stop stop-color="#DE4313"/>
<stop offset="0.00751407" stop-color="#DE4313"/>
<stop offset="0.0291793" stop-color="#DE4313"/>
<stop offset="0.06368" stop-color="#DE4414"/>
<stop offset="0.109701" stop-color="#DF4515"/>
<stop offset="0.165926" stop-color="#DF4816"/>
<stop offset="0.23104" stop-color="#E04B18"/>
<stop offset="0.303727" stop-color="#E1501B"/>
<stop offset="0.382673" stop-color="#E3561F"/>
<stop offset="0.46656" stop-color="#E55E24"/>
<stop offset="0.554074" stop-color="#E7682B"/>
<stop offset="0.643899" stop-color="#EB7533"/>
<stop offset="0.73472" stop-color="#EE843C"/>
<stop offset="0.825221" stop-color="#F39547"/>
<stop offset="0.914086" stop-color="#F8A954"/>
<stop offset="1" stop-color="#FEC163"/>
</linearGradient>
<linearGradient id="paint1_linear_1_1017" x1="0" y1="0" x2="22.5392" y2="148.581" gradientUnits="userSpaceOnUse">
<stop stop-color="#DE4313"/>
<stop offset="0.00751407" stop-color="#DE4313"/>
<stop offset="0.0291793" stop-color="#DE4313"/>
<stop offset="0.06368" stop-color="#DE4414"/>
<stop offset="0.109701" stop-color="#DF4515"/>
<stop offset="0.165926" stop-color="#DF4816"/>
<stop offset="0.23104" stop-color="#E04B18"/>
<stop offset="0.303727" stop-color="#E1501B"/>
<stop offset="0.382673" stop-color="#E3561F"/>
<stop offset="0.46656" stop-color="#E55E24"/>
<stop offset="0.554074" stop-color="#E7682B"/>
<stop offset="0.643899" stop-color="#EB7533"/>
<stop offset="0.73472" stop-color="#EE843C"/>
<stop offset="0.825221" stop-color="#F39547"/>
<stop offset="0.914086" stop-color="#F8A954"/>
<stop offset="1" stop-color="#FEC163"/>
</linearGradient>
</defs>
</svg>
